<svg width="56" height="50" viewBox="0 0 140 105" fill="none" xmlns="http://www.w3.org/2000/svg">
<path d="M82.975 78.0412L54.7376 101.902L53.9024 102.61L52.8026 103.538C52.5778 103.727 52.3146 103.866 52.0311 103.945C51.6562 104.048 51.2595 104.04 50.889 103.922C50.5186 103.804 50.19 103.582 49.9432 103.282L10.1338 55.1654C9.7873 54.7468 9.61998 54.2084 9.66825 53.6671C9.71652 53.1259 9.97647 52.6256 10.3916 52.2749L31.1967 34.6953L40.5674 26.7768C40.7709 26.6037 41.0069 26.4729 41.2615 26.3919C41.5161 26.3109 41.7842 26.2814 42.0504 26.305C42.3165 26.3287 42.5753 26.4051 42.8116 26.5297C43.0479 26.6544 43.257 26.8248 43.4268 27.0311L49.6235 34.5218L51.2286 36.4619L83.2345 75.1508C83.5808 75.5696 83.7478 76.1081 83.6992 76.6494C83.6506 77.1906 83.3904 77.6908 82.975 78.0412Z" fill="#0099A0"/>
<path d="M73.4548 80.4728L37.4484 36.4172L41.949 32.6572L77.9554 76.7128L73.4548 80.4728Z" fill="#F8FCFE"/>
<path d="M72.9753 80.8731L36.9689 36.8158L37.1613 36.656L73.1661 80.7116L72.9753 80.8731Z" fill="#063A4F"/>
<path d="M78.239 76.4723L42.2343 32.4149L42.425 32.2551L78.4314 76.3107L78.239 76.4723Z" fill="#063A4F"/>
<path d="M41.5228 72.9441L58.1349 93.2698L60.5287 91.2712L43.9166 70.9438L41.5228 72.9441Z" fill="#DA9A28"/>
<path d="M35.9413 57.2446L62.4447 89.6716L64.8368 87.6713L38.3351 55.2444L35.9413 57.2446Z" fill="#DA9A28"/>
<path d="M44.6315 85.6194L53.8268 96.87L56.2206 94.8697L47.0253 83.6191L44.6315 85.6194Z" fill="#DA9A28"/>
<path d="M77.2663 72.2053L76.2112 73.5955L76.0565 73.7983L75.8297 74.1059L72.1849 78.9175L71.9512 79.2234L71.7965 79.4279L54.7462 101.905L54.0863 102.776L53.368 103.723C53.2061 103.937 53.0036 104.116 52.7722 104.252C52.5408 104.387 52.285 104.475 52.0195 104.512C51.7539 104.548 51.4838 104.532 51.2245 104.464C50.9652 104.396 50.7219 104.277 50.5085 104.115L0.807848 66.4193C0.376583 66.0923 0.0928646 65.6073 0.0190702 65.0711C-0.0547241 64.5349 0.0874467 63.9913 0.414326 63.5599L24.323 32.0403C24.65 31.609 25.135 31.3253 25.6712 31.2515C26.2074 31.1777 26.751 31.3199 27.1824 31.6467L31.195 34.6901L41.8235 42.7547L42.6638 43.3923L43.9338 44.3546L49.6149 48.6662L51.2199 49.8828L63.8659 59.4768L65.1376 60.4426L65.983 61.0836L76.8676 69.3321C77.0812 69.494 77.2608 69.6965 77.3961 69.9279C77.5314 70.1593 77.6198 70.4151 77.6562 70.6806C77.6926 70.9462 77.6763 71.2163 77.6082 71.4756C77.5401 71.7348 77.4216 71.9781 77.2594 72.1916" fill="#063A4F"/>
<path d="M69.3885 70.2481L66.7169 73.769L68.591 75.1911L71.2626 71.6701L69.3885 70.2481Z" fill="#EBAB21"/>
<path d="M64.3629 65.7344L61.711 69.2703L63.593 70.6818L66.2449 67.1459L64.3629 65.7344Z" fill="#EBAB21"/>
<path d="M66.8907 68.3555L64.2191 71.8765L66.0932 73.2985L68.7648 69.7775L66.8907 68.3555Z" fill="#EBAB21"/>
<path d="M60.8474 63.7676L58.1758 67.2886L60.05 68.7106L62.7216 65.1896L60.8474 63.7676Z" fill="#EBAB21"/>
<path d="M55.8475 59.9741L53.1759 63.4951L55.05 64.9171L57.7216 61.3961L55.8475 59.9741Z" fill="#EBAB21"/>
<path d="M58.3496 61.8733L55.678 65.3943L57.5521 66.8163L60.2237 63.2953L58.3496 61.8733Z" fill="#EBAB21"/>
<path d="M52.3033 56.648L49.6514 60.1838L51.5334 61.5954L54.1853 58.0595L52.3033 56.648Z" fill="#EBAB21"/>
<path d="M47.3119 52.8877L44.66 56.4236L46.5421 57.8351L49.194 54.2993L47.3119 52.8877Z" fill="#EBAB21"/>
<path d="M49.8074 55.3872L47.1358 58.9082L49.0099 60.3302L51.6815 56.8092L49.8074 55.3872Z" fill="#EBAB21"/>
<path d="M43.7774 50.2249L41.1255 53.7607L43.0075 55.1723L45.6594 51.6364L43.7774 50.2249Z" fill="#EBAB21"/>
<path d="M38.786 46.4644L36.1341 50.0002L38.0161 51.4118L40.668 47.8759L38.786 46.4644Z" fill="#EBAB21"/>
<path d="M41.2635 48.9133L38.5919 52.4343L40.466 53.8563L43.1376 50.3354L41.2635 48.9133Z" fill="#EBAB21"/>
<path d="M26.2197 63.5549L24.7624 65.4756L57.2562 90.1308L58.7136 88.2102L26.2197 63.5549Z" fill="#EBAB21"/>
<path d="M35.8975 77.6196L34.4402 79.5403L54.0205 94.3972L55.4779 92.4765L35.8975 77.6196Z" fill="#EBAB21"/>
<path d="M41.9043 88.7371L40.447 90.6577L50.8621 98.5604L52.3194 96.6397L41.9043 88.7371Z" fill="#EBAB21"/>
<path d="M28.9748 50.8296L27.6224 52.6133C27.6024 52.6387 27.5733 52.6554 27.5413 52.6598C27.5093 52.6643 27.4768 52.6563 27.4506 52.6374L24.1993 50.1714C24.1739 50.1514 24.1572 50.1223 24.1528 50.0903C24.1483 50.0583 24.1563 50.0258 24.1752 49.9996L25.5276 48.2158C25.5479 48.1908 25.5769 48.1744 25.6088 48.1699C25.6407 48.1655 25.6731 48.1733 25.6995 48.1918L28.9508 50.6594C28.9765 50.6792 28.9935 50.7083 28.998 50.7404C29.0025 50.7726 28.9942 50.8052 28.9748 50.8313" fill="#EBAB21"/>
<path d="M25.0224 47.8311L23.6683 49.6148C23.6485 49.6406 23.6194 49.6575 23.5873 49.662C23.5551 49.6665 23.5225 49.6582 23.4964 49.6389L20.2434 47.1729C20.2177 47.1532 20.2007 47.1241 20.1962 47.0919C20.1917 47.0598 20.2 47.0272 20.2193 47.0011L21.5718 45.2173C21.5915 45.1916 21.6206 45.1746 21.6528 45.1701C21.6849 45.1656 21.7175 45.174 21.7436 45.1933L24.9966 47.661C25.0224 47.6807 25.0393 47.7098 25.0438 47.742C25.0483 47.7741 25.04 47.8067 25.0207 47.8328" fill="#EBAB21"/>
<path d="M26.27 54.3989L24.9176 56.1826C24.8976 56.208 24.8685 56.2246 24.8365 56.2291C24.8045 56.2336 24.772 56.2256 24.7458 56.2067L21.4928 53.739C21.4674 53.719 21.4507 53.6899 21.4462 53.6579C21.4417 53.6259 21.4498 53.5934 21.4687 53.5671L22.8228 51.7834C22.8428 51.7579 22.872 51.7413 22.9042 51.7371C22.9363 51.7329 22.9688 51.7415 22.9947 51.7611L26.2477 54.2184C26.2728 54.2387 26.2891 54.2679 26.2933 54.2999C26.2974 54.3319 26.2891 54.3642 26.27 54.3903" fill="#EBAB21"/>
<path d="M22.3158 51.3985L20.9634 53.1873C20.9436 53.2131 20.9145 53.2301 20.8824 53.2346C20.8502 53.2391 20.8176 53.2307 20.7915 53.2114L17.5385 50.7437C17.5128 50.724 17.4958 50.6949 17.4913 50.6627C17.4868 50.6306 17.4951 50.598 17.5145 50.5719L18.8686 48.7881C18.8883 48.7624 18.9174 48.7454 18.9496 48.7409C18.9817 48.7364 19.0144 48.7448 19.0404 48.7641L22.2917 51.2318C22.3175 51.2515 22.3344 51.2806 22.3389 51.3128C22.3434 51.3449 22.3351 51.3775 22.3158 51.4036" fill="#EBAB21"/>
<path d="M27.2718 53.0774L26.6206 53.9367C26.6008 53.9624 26.5717 53.9794 26.5396 53.9839C26.5074 53.9884 26.4748 53.98 26.4487 53.9607L23.194 51.493C23.1686 51.473 23.1519 51.444 23.1475 51.4119C23.143 51.3799 23.151 51.3474 23.1699 51.3212L23.8229 50.462C23.8427 50.4362 23.8718 50.4193 23.9039 50.4148C23.9361 50.4103 23.9687 50.4186 23.9948 50.4379L27.2461 52.9056C27.2718 52.9253 27.2888 52.9544 27.2933 52.9866C27.2978 53.0187 27.2895 53.0514 27.2701 53.0774" fill="#EBAB21"/>
<path d="M23.3176 50.077L22.6664 50.9362C22.6466 50.962 22.6175 50.9789 22.5854 50.9834C22.5532 50.9879 22.5206 50.9796 22.4945 50.9603L19.2415 48.4926C19.2158 48.4729 19.1988 48.4438 19.1943 48.4116C19.1898 48.3795 19.1981 48.3469 19.2175 48.3208L19.8687 47.4616C19.8888 47.4362 19.9178 47.4195 19.9498 47.415C19.9818 47.4105 20.0144 47.4186 20.0406 47.4375L23.2919 49.9052C23.3176 49.9249 23.3346 49.954 23.3391 49.9862C23.3436 50.0183 23.3353 50.051 23.3159 50.077" fill="#EBAB21"/>
<path d="M25.1977 49.6663L22.8383 52.7784C22.7947 52.835 22.7306 52.8721 22.6598 52.8817C22.5891 52.8914 22.5173 52.8728 22.4602 52.8299L21.4034 52.0291C21.3752 52.0077 21.3514 51.9809 21.3336 51.9503C21.3157 51.9197 21.3041 51.8859 21.2993 51.8508C21.2945 51.8157 21.2967 51.78 21.3057 51.7457C21.3147 51.7114 21.3304 51.6793 21.3518 51.6511L23.7129 48.5476C23.7342 48.5194 23.7609 48.4958 23.7913 48.4779C23.8218 48.4601 23.8554 48.4484 23.8904 48.4436C23.9254 48.4389 23.9609 48.441 23.9951 48.45C24.0292 48.459 24.0612 48.4746 24.0893 48.496L25.1461 49.2985C25.1745 49.3197 25.1983 49.3462 25.2163 49.3767C25.2343 49.4071 25.246 49.4409 25.2508 49.4759C25.2556 49.5109 25.2533 49.5466 25.2442 49.5807C25.2351 49.6149 25.2193 49.6469 25.1977 49.6749" fill="#134B59"/>
<path d="M25.1977 49.6663L22.8383 52.7784C22.7947 52.835 22.7306 52.8721 22.6598 52.8817C22.5891 52.8914 22.5173 52.8728 22.4602 52.8299L21.4034 52.0291C21.3752 52.0077 21.3514 51.9809 21.3336 51.9503C21.3157 51.9197 21.3041 51.8859 21.2993 51.8508C21.2945 51.8157 21.2967 51.78 21.3057 51.7457C21.3147 51.7114 21.3304 51.6793 21.3518 51.6511L23.7129 48.5476C23.7342 48.5194 23.7609 48.4958 23.7913 48.4779C23.8218 48.4601 23.8554 48.4484 23.8904 48.4436C23.9254 48.4389 23.9609 48.441 23.9951 48.45C24.0292 48.459 24.0612 48.4746 24.0893 48.496L25.1461 49.2985C25.2009 49.3411 25.2369 49.4033 25.2466 49.4719C25.2562 49.5406 25.2386 49.6103 25.1977 49.6663V49.6663Z" stroke="#063A4F" stroke-width="0.17"/>
<path d="M107.105 8.64374V96.3563C107.105 99.1522 105.938 101.639 104.132 103.22C102.864 104.356 101.223 104.99 99.5201 105H60.2933C56.1037 105 52.7081 101.13 52.7081 96.3563V8.64374C52.6954 6.77505 53.2399 4.94496 54.2719 3.38704C55.6587 1.32491 57.8394 0 60.2864 0H99.5115C103.699 0 107.097 3.86992 107.097 8.64374" fill="#065072"/>
<path d="M66.7529 4.1311H62.1406C58.3463 4.1311 55.2668 7.63844 55.2668 11.962V92.7939C55.2668 97.1192 58.3446 100.625 62.1406 100.625H97.6659C101.462 100.625 104.54 97.1192 104.54 92.7939V11.962C104.54 7.63844 101.464 4.1311 97.6659 4.1311H93.8234V5.91312C93.8234 7.67968 92.569 9.11114 91.019 9.11114H69.5591C68.0125 9.11114 66.7529 7.67968 66.7529 5.91312V4.1311Z" fill="#DA9A28"/>
<path d="M104.486 11.9551H55.2668V93.0379H104.486V11.9551Z" fill="#F8B318"/>
<path d="M70.0919 4.13113H90.7802C91.1926 4.13113 91.5277 4.51434 91.5277 4.99035V5.95783C91.5277 6.42868 91.184 6.81705 90.7802 6.81705H70.0919C69.6795 6.81705 69.3444 6.43556 69.3444 5.95783V4.9852C69.3444 4.51434 69.6795 4.12598 70.0919 4.12598" fill="white"/>
<path d="M70.5764 96.0073H90.8179C91.232 96.0073 91.5654 96.3888 91.5654 96.8665V97.7687C91.5654 98.2396 91.232 98.6279 90.8179 98.6279H70.5764C70.1622 98.6279 69.8271 98.2447 69.8271 97.7687V96.8665C69.8271 96.3957 70.1622 96.0073 70.5764 96.0073Z" fill="#065072"/>
<path d="M70.1588 33.3979L71.018 35.2229C71.1539 35.5416 71.3634 35.8237 71.6292 36.0459C71.895 36.2681 72.2097 36.4242 72.5474 36.5014L74.4085 36.8623L73.0492 38.323C72.8021 38.588 72.6254 38.9107 72.5353 39.2617C72.4452 39.6126 72.4447 39.9806 72.5337 40.3318L72.8774 42.3407L71.1778 41.4265C70.8987 41.248 70.5743 41.1532 70.243 41.1532C69.9117 41.1532 69.5873 41.248 69.3082 41.4265L67.6086 42.3407L67.9523 40.3318C68.1242 39.6015 67.7805 38.8712 67.4368 38.323L66.0775 36.8623L67.9472 36.4963C68.285 36.4193 68.5998 36.2633 68.8657 36.041C69.1316 35.8188 69.3409 35.5366 69.4766 35.2178L70.1588 33.3979Z" fill="#E6E7E8"/>
<path d="M80.5262 33.3979L81.3769 35.2229C81.5123 35.542 81.7216 35.8242 81.9875 36.0465C82.2534 36.2688 82.5683 36.4247 82.9063 36.5014L84.7759 36.8623L83.4149 38.323C83.168 38.5881 82.9915 38.9109 82.9014 39.2618C82.8114 39.6127 82.8107 39.9806 82.8994 40.3318L83.2431 42.3407L81.5435 41.4265C81.2644 41.248 80.94 41.1532 80.6087 41.1532C80.2774 41.1532 79.953 41.248 79.6739 41.4265L77.9743 42.3407L78.318 40.3318C78.4899 39.6015 78.1462 38.8712 77.8025 38.323L76.4484 36.8623L78.3163 36.4963C78.6544 36.4193 78.9694 36.2633 79.2355 36.0411C79.5017 35.8188 79.7114 35.5367 79.8474 35.2178L80.5262 33.3979Z" fill="#F1F2F2"/>
<path d="M91.0636 33.3979L91.9228 35.2229C92.0585 35.5418 92.2678 35.8239 92.5337 36.0462C92.7996 36.2684 93.1143 36.4245 93.4522 36.5014L95.3133 36.8623L93.954 38.323C93.7068 38.588 93.5301 38.9107 93.4401 39.2617C93.35 39.6126 93.3494 39.9806 93.4385 40.3318L93.7821 42.3407L92.0826 41.4265C91.8035 41.248 91.4791 41.1532 91.1478 41.1532C90.8165 41.1532 90.4921 41.248 90.213 41.4265L88.5134 42.3407L88.8571 40.3318C89.029 39.6015 88.6853 38.8712 88.3416 38.323L86.9823 36.8623L88.852 36.4963C89.1897 36.4191 89.5044 36.2629 89.7702 36.0407C90.036 35.8185 90.2455 35.5365 90.3814 35.2178L91.0636 33.3979Z" fill="#E6E7E8"/>
<path d="M75.2574 44.9011L76.1167 46.7278C76.2525 47.0465 76.462 47.3285 76.7278 47.5508C76.9936 47.773 77.3083 47.9291 77.6461 48.0063L79.5071 48.3758L78.1478 49.8365C77.9007 50.1014 77.724 50.4242 77.6339 50.7752C77.5439 51.1261 77.5433 51.4941 77.6323 51.8453L77.976 53.8542L76.2765 52.9417C75.9976 52.7624 75.6731 52.6671 75.3416 52.6671C75.0101 52.6671 74.6856 52.7624 74.4068 52.9417L72.7073 53.8542L73.051 51.8453C73.2228 51.115 72.8791 50.3847 72.5354 49.8365L71.1761 48.3758L73.0458 48.0115C73.3835 47.934 73.698 47.7778 73.9638 47.5556C74.2296 47.3334 74.4391 47.0515 74.5752 46.733L75.2574 44.9011Z" fill="#F1F2F2"/>
<path d="M85.7967 44.9011L86.6456 46.7278C86.7817 47.0464 86.9912 47.3283 87.257 47.5504C87.5228 47.7726 87.8373 47.9288 88.175 48.0063L90.0412 48.3758L88.6819 49.8365C88.4348 50.1014 88.2581 50.4242 88.168 50.7752C88.0779 51.1261 88.0774 51.4941 88.1664 51.8453L88.5101 53.8542L86.8105 52.9417C86.5317 52.7624 86.2072 52.6671 85.8757 52.6671C85.5442 52.6671 85.2197 52.7624 84.9409 52.9417L83.2413 53.8542L83.585 51.8453C83.7569 51.115 83.4132 50.3847 83.0695 49.8365L81.7102 48.3758L83.5799 48.0115C83.9176 47.9343 84.2323 47.7781 84.4981 47.5559C84.764 47.3337 84.9734 47.0517 85.1093 46.733L85.7967 44.9011Z" fill="#E6E7E8"/>
<path d="M99.3122 77.9792L104.787 73.8721H136.881C137.519 73.8721 138.131 73.6186 138.582 73.1675C139.033 72.7163 139.286 72.1044 139.286 71.4663V52.1287C139.286 51.4907 139.033 50.8787 138.582 50.4275C138.131 49.9764 137.519 49.7229 136.881 49.7229H101.034C100.199 49.7229 99.3989 50.0543 98.8086 50.6444C98.2182 51.2344 97.8863 52.0347 97.8859 52.8694V77.2712C97.886 77.4367 97.9322 77.5988 98.0193 77.7396C98.1064 77.8803 98.2309 77.994 98.3789 78.068C98.5269 78.142 98.6926 78.1734 98.8574 78.1586C99.0222 78.1438 99.1797 78.0835 99.3122 77.9843" fill="#0099A0"/>
<path d="M99.441 77.6201L103.076 74.8946C104.16 74.0797 105.479 73.6384 106.835 73.6367H136.745C137.409 73.6367 138.046 73.373 138.515 72.9034C138.985 72.4339 139.249 71.797 139.249 71.133V51.9947C139.249 51.3307 138.985 50.6938 138.515 50.2243C138.046 49.7548 137.409 49.491 136.745 49.491H99.4187C99.0017 49.491 98.6017 49.6566 98.3069 49.9515C98.012 50.2464 97.8463 50.6463 97.8463 51.0633V76.8227C97.8463 77.0078 97.8979 77.1893 97.9952 77.3467C98.0925 77.5042 98.2317 77.6314 98.3973 77.7142C98.5628 77.797 98.7482 77.832 98.9325 77.8154C99.1169 77.7988 99.293 77.7311 99.441 77.6201Z" fill="#063A4F"/>
<path d="M116.729 62.106L114.869 62.6387L113.838 62.9291L114.72 63.7883L115.964 65.0067C116.035 65.0776 116.074 65.1737 116.074 65.2739C116.074 65.3741 116.035 65.4702 115.964 65.5411L115.672 65.8332C115.601 65.9036 115.505 65.943 115.405 65.943C115.306 65.943 115.21 65.9036 115.139 65.8332L112.764 63.4463L112.18 64.0289L110.382 65.8281C110.311 65.8981 110.215 65.9373 110.115 65.9373C110.015 65.9373 109.919 65.8981 109.848 65.8281L109.556 65.5359C109.486 65.4646 109.447 65.3687 109.447 65.2687C109.447 65.1688 109.486 65.0728 109.556 65.0015L110.8 63.7831L111.682 62.9239L110.65 62.6335L108.795 62.1094C108.698 62.0814 108.617 62.0166 108.569 61.9291C108.52 61.8415 108.508 61.7384 108.535 61.642L108.647 61.2467C108.674 61.1504 108.738 61.0688 108.826 61.0199C108.913 60.9709 109.016 60.9585 109.112 60.9855L110.784 61.477L112.173 61.886V58.6691C112.173 58.6194 112.182 58.5701 112.201 58.5241C112.22 58.4782 112.248 58.4364 112.283 58.4012C112.318 58.3661 112.36 58.3382 112.406 58.3193C112.452 58.3004 112.501 58.2908 112.551 58.291H112.963C113.013 58.291 113.062 58.3008 113.108 58.3198C113.154 58.3389 113.195 58.3667 113.23 58.4019C113.265 58.437 113.293 58.4787 113.312 58.5245C113.33 58.5704 113.34 58.6195 113.34 58.6691L113.314 61.2759V61.8929L114.735 61.4736L116.407 60.9821C116.504 60.9551 116.607 60.9675 116.694 61.0164C116.781 61.0654 116.846 61.147 116.873 61.2433L116.985 61.6385C117.012 61.7345 117 61.8372 116.952 61.9247C116.904 62.0122 116.824 62.0773 116.729 62.106Z" fill="#00848A"/>
<path d="M116.729 61.9858L114.873 62.5014L113.842 62.7918L114.723 63.651L115.967 64.8694C116.038 64.9403 116.078 65.0364 116.078 65.1366C116.078 65.2368 116.038 65.3329 115.967 65.4038L115.675 65.6942C115.64 65.7295 115.599 65.7574 115.553 65.7765C115.507 65.7956 115.458 65.8054 115.409 65.8054C115.359 65.8054 115.31 65.7956 115.264 65.7765C115.219 65.7574 115.177 65.7295 115.142 65.6942L112.764 63.3262L112.18 63.9088L110.382 65.7062C110.311 65.7771 110.215 65.8169 110.115 65.8169C110.015 65.8169 109.919 65.7771 109.848 65.7062L109.556 65.4158C109.486 65.3445 109.447 65.2486 109.447 65.1486C109.447 65.0487 109.486 64.9527 109.556 64.8814L110.8 63.6699L111.682 62.8107L110.65 62.5203L108.795 62.0047C108.698 61.9768 108.617 61.912 108.569 61.8244C108.52 61.7369 108.508 61.6337 108.535 61.5373L108.647 61.1404C108.674 61.0444 108.739 60.9632 108.826 60.9146C108.913 60.8659 109.016 60.8538 109.112 60.8809L110.784 61.3724L112.173 61.7813V58.549C112.173 58.4993 112.182 58.45 112.201 58.404C112.22 58.358 112.248 58.3163 112.283 58.2811C112.318 58.246 112.36 58.2181 112.406 58.1992C112.452 58.1803 112.501 58.1707 112.551 58.1709H112.963C113.013 58.1709 113.062 58.1807 113.108 58.1997C113.154 58.2187 113.195 58.2466 113.23 58.2817C113.265 58.3169 113.293 58.3586 113.312 58.4044C113.33 58.4503 113.34 58.4994 113.34 58.549L113.314 61.1558V61.771L114.735 61.3535L116.407 60.862C116.503 60.8349 116.606 60.847 116.694 60.8957C116.781 60.9443 116.845 61.0255 116.873 61.1215L116.985 61.5184C117.012 61.6143 117 61.7171 116.952 61.8046C116.904 61.892 116.824 61.9571 116.729 61.9858Z" fill="#0099A0"/>
<path d="M130.648 60.4821V60.8945C130.648 60.9441 130.638 60.9931 130.619 61.0389C130.6 61.0847 130.572 61.1262 130.537 61.1612C130.502 61.1962 130.46 61.2239 130.414 61.2427C130.368 61.2615 130.319 61.271 130.27 61.2708L126.317 61.2313L121.724 61.2708C121.675 61.2708 121.626 61.2611 121.58 61.2422C121.534 61.2233 121.493 61.1955 121.458 61.1606C121.423 61.1257 121.395 61.0842 121.376 61.0385C121.357 60.9928 121.348 60.9439 121.348 60.8945V60.4821C121.347 60.4325 121.357 60.3834 121.376 60.3375C121.395 60.2917 121.422 60.25 121.457 60.2148C121.492 60.1797 121.534 60.1518 121.58 60.1328C121.625 60.1138 121.674 60.104 121.724 60.104H130.27C130.319 60.1038 130.369 60.1134 130.415 60.1323C130.461 60.1512 130.502 60.1791 130.538 60.2142C130.573 60.2494 130.601 60.2911 130.62 60.3371C130.638 60.3831 130.648 60.4324 130.648 60.4821Z" fill="#00848A"/>
<path d="M130.648 63.3571V63.7695C130.648 63.8698 130.608 63.9659 130.537 64.0368C130.466 64.1077 130.37 64.1476 130.27 64.1476L126.317 64.1063L121.724 64.1476C121.624 64.1471 121.528 64.1071 121.458 64.0362C121.387 63.9654 121.348 63.8695 121.348 63.7695V63.3571C121.348 63.2571 121.387 63.1612 121.458 63.0903C121.528 63.0195 121.624 62.9795 121.724 62.979H130.27C130.319 62.979 130.369 62.9888 130.414 63.0078C130.46 63.0268 130.502 63.0546 130.537 63.0897C130.572 63.1248 130.6 63.1665 130.619 63.2124C130.638 63.2583 130.648 63.3074 130.648 63.3571Z" fill="#00848A"/>
<path d="M128.503 57.3701L128.912 57.432C128.961 57.4393 129.008 57.4563 129.051 57.4819C129.093 57.5074 129.13 57.5412 129.16 57.5811C129.189 57.621 129.21 57.6663 129.222 57.7145C129.234 57.7626 129.236 57.8126 129.228 57.8616L128.469 62.6491L127.921 66.5638C127.905 66.6627 127.852 66.7515 127.771 66.8111C127.691 66.8706 127.59 66.896 127.491 66.8817L127.084 66.8198C126.985 66.805 126.896 66.7514 126.836 66.6708C126.776 66.5902 126.751 66.4893 126.766 66.3902L127.354 62.4825L128.074 57.688C128.089 57.5891 128.143 57.5002 128.223 57.4407C128.304 57.3812 128.404 57.3558 128.503 57.3701Z" fill="#00848A"/>
<path d="M124.504 57.3701L124.913 57.432C125.012 57.4472 125.101 57.501 125.16 57.5815C125.219 57.662 125.244 57.7627 125.23 57.8616L124.47 62.6491L123.922 66.5637C123.907 66.6626 123.853 66.7515 123.772 66.8111C123.692 66.8706 123.591 66.896 123.492 66.8816L123.085 66.8198C122.986 66.8049 122.897 66.7513 122.837 66.6708C122.778 66.5902 122.752 66.4893 122.767 66.3902L123.355 62.4825L124.075 57.688C124.09 57.5889 124.143 57.4997 124.224 57.4401C124.304 57.3805 124.405 57.3553 124.504 57.3701Z" fill="#00848A"/>
<path d="M130.562 60.3395V60.7485C130.562 60.8485 130.522 60.9444 130.452 61.0152C130.381 61.0861 130.286 61.1261 130.186 61.1265L126.233 61.0853L121.64 61.1265C121.54 61.1261 121.444 61.0861 121.374 61.0152C121.303 60.9444 121.263 60.8485 121.263 60.7485V60.3361C121.263 60.2358 121.303 60.1396 121.374 60.0687C121.445 59.9978 121.541 59.958 121.642 59.958H130.186C130.286 59.9585 130.381 59.9985 130.452 60.0693C130.522 60.1402 130.562 60.2361 130.562 60.3361" fill="#0099A0"/>
<path d="M130.562 63.2145V63.6269C130.562 63.7269 130.522 63.8228 130.452 63.8936C130.381 63.9645 130.286 64.0045 130.186 64.005L126.233 63.9637L121.64 64.005C121.54 64.0045 121.444 63.9645 121.374 63.8936C121.303 63.8228 121.263 63.7269 121.263 63.6269V63.2145C121.263 63.1649 121.273 63.1158 121.292 63.0701C121.311 63.0243 121.339 62.9827 121.374 62.9478C121.409 62.9128 121.451 62.8851 121.497 62.8663C121.543 62.8475 121.592 62.8379 121.642 62.8381H130.186C130.285 62.8381 130.381 62.8778 130.452 62.9484C130.522 63.019 130.562 63.1147 130.562 63.2145Z" fill="#0099A0"/>
<path d="M128.414 57.2273L128.821 57.2891C128.92 57.3044 129.009 57.3581 129.068 57.4386C129.128 57.519 129.153 57.6197 129.139 57.7188L128.378 62.508L127.835 66.4192C127.828 66.4682 127.811 66.5153 127.786 66.5578C127.76 66.6004 127.727 66.6374 127.687 66.667C127.647 66.6965 127.602 66.7179 127.554 66.73C127.506 66.742 127.456 66.7444 127.407 66.7371L126.998 66.6753C126.949 66.6679 126.902 66.651 126.859 66.6254C126.817 66.5998 126.78 66.5661 126.751 66.5262C126.721 66.4862 126.7 66.4409 126.688 66.3928C126.676 66.3446 126.674 66.2946 126.682 66.2456L127.269 62.3379L127.989 57.5435C128.004 57.4444 128.058 57.3552 128.138 57.2956C128.219 57.236 128.32 57.2108 128.419 57.2256" fill="#0099A0"/>
<path d="M124.42 57.2273L124.828 57.2891C124.877 57.2965 124.924 57.3134 124.966 57.339C125.009 57.3646 125.046 57.3983 125.075 57.4383C125.104 57.4782 125.125 57.5235 125.137 57.5716C125.149 57.6198 125.151 57.6698 125.144 57.7188L124.384 62.508L123.836 66.4192C123.829 66.4682 123.812 66.5153 123.787 66.5578C123.761 66.6004 123.728 66.6374 123.688 66.667C123.648 66.6965 123.603 66.7179 123.555 66.73C123.507 66.742 123.457 66.7444 123.408 66.7371L122.999 66.6753C122.95 66.6679 122.903 66.651 122.861 66.6254C122.818 66.5998 122.781 66.5661 122.752 66.5262C122.722 66.4862 122.701 66.4409 122.689 66.3928C122.678 66.3446 122.675 66.2946 122.683 66.2456L123.269 62.3379L123.991 57.5435C124.006 57.4444 124.059 57.3552 124.14 57.2956C124.22 57.236 124.321 57.2108 124.42 57.2256" fill="#0099A0"/>
</svg>
