<?xml version="1.0" standalone="no"?>
<!DOCTYPE svg PUBLIC "-//W3C//DTD SVG 20010904//EN"
 "http://www.w3.org/TR/2001/REC-SVG-20010904/DTD/svg10.dtd">
<svg version="1.0" xmlns="http://www.w3.org/2000/svg"
 width="512.000000pt" height="512.000000pt" viewBox="0 0 512.000000 512.000000"
 preserveAspectRatio="xMidYMid meet">

<g transform="translate(0.000000,512.000000) scale(0.100000,-0.100000)"
fill="#ff2212" stroke="none">
<path d="M2420 4343 c-30 -2 -109 -10 -175 -19 -424 -53 -710 -174 -786 -331
-22 -45 -22 -50 -15 -320 l6 -274 -52 8 c-99 15 -337 9 -423 -11 -360 -82
-642 -289 -819 -601 -193 -338 -204 -786 -29 -1135 88 -173 237 -348 386 -454
418 -295 975 -300 1396 -12 l84 58 78 -16 c105 -21 298 -44 446 -52 l122 -7
26 -53 c71 -145 308 -255 676 -313 558 -89 1199 -31 1554 140 89 43 195 145
213 205 9 30 12 203 12 640 l0 599 -24 50 c-61 132 -261 237 -569 300 -112 23
-304 46 -499 61 l-78 6 0 546 c0 485 -2 551 -17 592 -34 92 -93 152 -213 214
-163 85 -453 152 -754 176 -119 9 -416 11 -546 3z m424 -203 c201 -11 294 -21
446 -51 245 -49 458 -148 437 -203 -18 -47 -169 -117 -344 -160 -371 -92 -921
-101 -1318 -20 -186 38 -376 117 -413 172 -14 21 -13 25 9 48 37 40 95 70 209
108 178 59 371 92 625 105 77 5 147 9 155 9 8 1 96 -3 194 -8z m884 -817 c-28
-57 -215 -138 -408 -178 -255 -53 -558 -74 -827 -57 -339 22 -482 51 -580 118
-37 26 -108 67 -158 91 -89 43 -90 44 -97 86 -3 23 -7 88 -7 144 l-1 102 63
-29 c342 -155 1097 -199 1615 -94 131 26 313 82 372 113 l35 19 3 -145 c2
-102 -1 -152 -10 -170z m-2303 -130 c301 -58 564 -261 708 -548 155 -310 136
-686 -50 -984 -56 -90 -184 -226 -269 -287 -198 -142 -462 -211 -696 -184
-238 27 -430 117 -600 278 -177 169 -286 395 -307 640 -59 681 538 1215 1214
1085z m2315 -256 l0 -134 -127 -6 c-251 -13 -532 -69 -697 -137 -79 -33 -181
-95 -205 -123 -11 -14 -34 -17 -136 -17 -139 0 -185 6 -185 26 0 29 -74 198
-121 276 -27 45 -49 82 -49 83 0 0 26 -2 58 -7 115 -16 556 -21 703 -9 315 27
523 76 757 180 1 1 2 -59 2 -132z m375 -347 c352 -26 656 -104 764 -196 49
-43 46 -56 -27 -103 -288 -184 -1121 -242 -1659 -116 -177 42 -336 114 -363
165 -10 18 -7 25 20 50 103 97 396 172 785 203 91 8 359 6 480 -3z m-1501
-281 c2 -2 7 -84 11 -182 l7 -179 -103 7 c-57 4 -105 9 -107 10 -2 1 2 31 8
66 5 35 10 115 10 178 l0 114 86 -6 c47 -2 87 -6 88 -8z m2306 -353 c0 -73 -5
-147 -11 -164 -37 -107 -382 -211 -809 -243 -495 -38 -1092 58 -1242 199 l-28
26 0 153 c0 99 4 153 10 153 6 0 27 -8 48 -19 49 -25 185 -67 291 -91 524
-115 1256 -78 1645 84 45 18 84 34 89 35 4 0 7 -59 7 -133z m-2294 -210 c1 0
3 -82 5 -181 l4 -180 -95 3 c-90 3 -361 30 -368 36 -1 2 22 40 53 84 30 44 74
119 96 166 l41 86 132 -6 c72 -4 132 -7 132 -8z m2276 -545 c-63 -85 -356
-176 -682 -212 -163 -18 -563 -16 -727 4 -314 39 -559 117 -629 199 -23 28
-24 35 -24 174 0 79 3 144 8 144 4 0 39 -13 78 -30 198 -83 488 -130 847 -137
443 -10 803 41 1052 147 l90 38 3 -151 c2 -134 0 -154 -16 -176z"/>
<path d="M1192 3028 c-39 -10 -72 -58 -72 -105 0 -28 -5 -34 -62 -61 -81 -37
-143 -100 -182 -182 -28 -59 -31 -74 -31 -165 0 -87 3 -107 26 -155 36 -76 97
-141 166 -178 52 -27 99 -39 231 -58 43 -7 107 -65 123 -111 38 -117 -49 -242
-170 -243 -85 0 -167 74 -178 162 -11 85 -42 118 -108 118 -27 0 -44 -8 -67
-30 -29 -29 -30 -34 -26 -98 7 -132 98 -263 219 -319 l57 -26 4 -65 c4 -58 8
-68 36 -93 79 -71 172 -8 172 115 0 44 0 45 54 69 153 70 248 250 216 410 -24
123 -100 226 -209 282 -32 16 -88 31 -146 40 -105 15 -118 21 -157 62 -121
128 8 340 179 294 22 -6 52 -20 67 -32 32 -25 66 -89 66 -124 0 -39 25 -92 50
-105 32 -17 83 -15 113 5 38 24 50 72 38 141 -24 129 -103 235 -214 287 -47
23 -57 32 -57 53 0 30 -23 89 -39 99 -26 15 -68 21 -99 13z"/>
</g>
</svg>
